<svg width="1847" height="996" viewBox="0 0 1847 996" fill="none" xmlns="http://www.w3.org/2000/svg">
<g clip-path="url(#clip0_240_418)">
<path fill-rule="evenodd" clip-rule="evenodd" d="M1182.27 596.181C1187.68 600.991 1197.31 601.041 1204.08 602.531C1219.63 606.011 1234.33 608.341 1250.2 610.181C1269.22 612.391 1288.53 612.861 1307.59 615.271C1327.43 617.811 1364.6 614.621 1374.22 592.671C1386.51 564.671 1321.5 564.471 1306.61 564.471C1282.68 564.471 1259.09 565.751 1235.25 565.751C1221.36 565.751 1208.98 564.631 1196.21 569.821C1182.66 575.331 1159.5 599.661 1189.87 599.991" fill="#EFDFB9"/>
<path fill-rule="evenodd" clip-rule="evenodd" d="M1249.17 572.731C1258.82 534.891 1278.56 498.751 1286.29 474.411C1302.75 422.631 1321.18 383.671 1344.03 327.821C1358.38 292.791 1377.02 245.351 1396.03 210.721C1400.47 213.811 1418.71 224.821 1420.85 229.371C1427.21 242.931 1413.83 262.531 1407.99 278.071C1393.47 316.581 1378.53 349.891 1368.15 389.381C1349.95 458.471 1334.98 526.361 1318.82 595.921C1293.3 599.771 1269.85 596.691 1249.17 574.271" fill="#C3AE90"/>
<path fill-rule="evenodd" clip-rule="evenodd" d="M1409.36 233.311C1409.18 233.511 1409.36 234.251 1409.05 233.681C1409.23 230.841 1411.87 228.581 1413.3 226.281C1416.79 220.631 1420.09 214.881 1423.57 209.231C1430.24 198.401 1435.85 187.111 1443.06 176.511C1447.89 169.421 1451.74 161.691 1456.6 154.631C1458.18 152.311 1463.09 144.321 1465.28 142.641C1464.7 148.151 1457.03 159.421 1453.99 164.131C1446.15 176.351 1440.91 185.491 1437.15 191.851C1430.89 202.491 1426.02 213.621 1420.96 224.851C1419.52 227.981 1418.82 231.601 1416.84 234.471C1414.13 238.451 1412.16 237.401 1408.79 234.771" fill="#8EB13E"/>
<path fill-rule="evenodd" clip-rule="evenodd" d="M1413.75 240.48C1427.79 200.36 1439.41 132.12 1419.25 92.1502C1397.82 49.6402 1356.5 19.5402 1315.56 0.490234C1318.4 18.4402 1337.96 34.2802 1348.82 48.0502C1337.21 42.9902 1320.61 41.3602 1307.99 37.0002C1325.66 51.8402 1343.05 65.5002 1362.07 77.5102C1351.4 81.4402 1339.8 82.4102 1328.75 81.3802C1345.64 95.4902 1361.78 110.35 1378.84 124.28C1368.95 125.92 1358.01 123.87 1348.73 126.76C1362.52 140.52 1378.42 151.17 1389.34 166.86C1379.45 172.89 1364.79 166.54 1354.14 170.31C1368.12 184.03 1385.52 192.11 1395.58 208.95C1401.66 219.14 1403.43 231.9 1410.36 241.57C1412.85 239.95 1416.96 239.03 1417.77 236.2" fill="#B7CD44"/>
<path fill-rule="evenodd" clip-rule="evenodd" d="M1418.35 226.051C1404.42 185.901 1371.12 125.241 1330.47 106.431C1287.24 86.4307 1236.2 88.5607 1192.27 99.0607C1205.66 111.371 1230.83 111.631 1247.9 115.681C1235.64 118.901 1221.65 127.961 1209.03 132.381C1232.1 133.011 1254.25 132.901 1276.58 130.481C1270.67 140.231 1262.18 148.191 1252.91 154.271C1274.92 154.841 1296.79 156.421 1318.77 156.711C1312.09 164.161 1302.23 169.351 1296.76 177.381C1316.11 179.571 1335.16 178.031 1353.5 183.581C1349.46 194.411 1334.06 198.551 1328.06 208.171C1347.53 210.191 1366.18 205.711 1384.54 212.701C1395.61 216.861 1404.93 225.781 1416.39 229.021C1417.32 226.211 1416.59 224.011 1415.45 221.311" fill="#8EB13E"/>
<path fill-rule="evenodd" clip-rule="evenodd" d="M1421.25 220.261C1384.9 198.181 1319.88 175.081 1276.58 186.481C1230.53 198.611 1192.55 232.791 1165.4 268.891C1183.55 269.851 1203.11 253.991 1218.85 246.231C1211.47 256.531 1206.45 272.461 1199.54 283.881C1217.73 269.641 1234.71 255.471 1250.39 239.381C1252.04 250.601 1250.58 262.181 1247.28 272.781C1264.59 259.181 1282.48 246.471 1299.6 232.681C1299.19 242.661 1294.9 252.951 1295.82 262.631C1312.13 252.001 1325.84 238.651 1343.47 231.251C1347.29 242.181 1338.03 255.151 1339.53 266.411C1355.84 255.531 1366.35 232.631 1385.93 233.881C1399.48 234.761 1414.93 232.001 1425.86 227.221C1424.77 224.451 1417.87 222.211 1415.26 220.851" fill="#B7CD44"/>
<path fill-rule="evenodd" clip-rule="evenodd" d="M1420.64 222.041C1445.11 187.251 1493.86 138.161 1538.12 131.311C1585.19 124.021 1633.65 140.151 1672.98 162.381C1656.71 170.521 1632.45 163.831 1614.93 162.991C1625.81 169.481 1636.77 182.041 1647.68 189.771C1625.31 184.001 1596.81 180.791 1575.97 172.261C1585.46 182.331 1594.23 190.421 1599.48 198.711C1578.16 193.141 1556.69 188.631 1535.47 182.861C1539.87 191.881 1547.89 199.571 1550.94 208.811C1531.72 205.571 1513.83 198.831 1494.71 199.091C1495.57 210.641 1509.25 218.861 1512.37 229.741C1493.09 226.321 1476.39 216.861 1456.83 218.481C1445.02 219.471 1433.62 225.441 1421.71 225.421C1421.59 222.461 1414.47 228.951 1416.32 226.661" fill="#B7CD44"/>
<path fill-rule="evenodd" clip-rule="evenodd" d="M1420.18 222.68C1460.85 209.42 1529.69 199.19 1569.49 220.32C1611.8 242.78 1641.16 284.97 1659.45 326.57C1641.46 323.31 1625.94 303.32 1612.31 292.1C1617.18 303.89 1618.44 320.61 1622.59 333.4C1608.02 315.29 1594.66 297.5 1583 278.13C1578.8 288.78 1577.58 300.42 1578.36 311.54C1564.79 294.58 1551 279.07 1536.34 260.28C1534.45 270.15 1536.29 281.2 1533.16 290.48C1519.63 276.29 1509.27 260.09 1493.7 248.79C1487.45 258.63 1493.51 273.48 1489.48 284.13C1476.01 269.76 1468.23 252.09 1451.49 241.61C1441.38 235.3 1428.61 233.22 1419.01 226.04C1420.7 223.58 1422.91 222.86 1425.77 222.12" fill="#8EB13E"/>
<path fill-rule="evenodd" clip-rule="evenodd" d="M1417.48 218.55C1457.03 234.13 1521.36 270.29 1538.46 311.7C1556.64 355.72 1552.4 406.62 1540.07 450.09C1528.33 436.2 1529.11 411.06 1525.8 393.82C1522.06 405.91 1512.44 419.55 1507.49 431.97C1507.81 408.87 1504.24 380.38 1507.57 358.18C1500.04 369.75 1494.24 380.2 1487.45 387.21C1487.81 365.22 1487.12 343.26 1487.74 321.29C1480.02 327.64 1474.44 337.29 1466.16 342.41C1464.77 322.99 1467.11 304.03 1462.36 285.49C1451.34 289.07 1446.57 304.29 1436.73 309.87C1435.52 290.32 1440.77 271.87 1434.57 253.25C1430.82 241.99 1416.51 249.22 1413.72 237.66C1416.58 236.84 1415.68 215.25 1418.34 216.51" fill="#B7CD44"/>
<path fill-rule="evenodd" clip-rule="evenodd" d="M1404.71 232.451C1403.38 231.061 1399.89 230.851 1397.86 230.421C1393.38 229.441 1389.89 229.521 1385.31 230.231C1378.52 231.271 1372.86 233.081 1367.59 237.581C1357.84 245.891 1366.11 260.631 1373.06 268.191C1376.67 272.131 1378.84 274.481 1384.48 274.631C1390.58 274.781 1397.22 269.871 1401.52 265.911C1408.83 259.231 1411.2 250.171 1409.12 240.721C1408.56 238.081 1407.62 232.491 1404.43 232.121" fill="#735F51"/>
<path fill-rule="evenodd" clip-rule="evenodd" d="M1410.05 233.87C1408.14 233.94 1405.62 236.36 1403.94 237.56C1400.17 240.22 1397.87 242.83 1395.3 246.68C1391.48 252.39 1388.98 257.78 1388.73 264.72C1388.27 277.51 1404.73 281.4 1414.99 281.4C1420.31 281.4 1423.52 281.36 1427.46 277.32C1431.7 272.94 1432.56 264.72 1432.56 258.88C1432.56 248.97 1427.5 241.11 1419.14 236.24C1416.81 234.9 1412.07 231.8 1409.64 233.88" fill="#806D5D"/>
<path d="M1272.35 535.291C1283.13 543.551 1295.48 543.391 1308.69 546.831C1306.48 545.231 1304.1 542.931 1302.58 541.861C1296.46 540.071 1272.28 527.601 1272.35 535.291Z" fill="#806D5D"/>
<path d="M1295.62 503.561C1303.67 509.371 1317.4 511.481 1326.87 512.801C1325.15 509.571 1313.71 505.831 1310.02 504.421C1304.19 502.151 1297.72 500.071 1291.89 498.971C1291.89 501.531 1295.02 503.131 1296.88 504.851" fill="#806D5D"/>
<path d="M1288.68 466.77C1299.68 468.46 1309.78 472.8 1319.69 474.62C1313.19 469.01 1298.51 464.23 1290.27 461.99C1290.04 462.81 1289.01 466.39 1288.69 466.91" fill="#806D5D"/>
<path d="M1309.78 441.17C1309.76 445.56 1339.99 452.91 1345.05 452.75C1343.28 448.77 1333.52 446.34 1329.44 445.12C1323.6 443.34 1315.73 440.12 1309.57 440.99" fill="#806D5D"/>
<path d="M1317.36 415.831C1323.07 419.721 1332.82 421.191 1339.55 422.121C1338.34 419.891 1330.22 417.381 1327.58 416.391C1323.46 414.831 1318.86 413.431 1314.73 412.701C1314.75 414.411 1316.95 415.521 1318.26 416.671" fill="#806D5D"/>
<path d="M1335.06 392.81C1335.06 395.32 1352.3 399.53 1355.2 399.47C1354.19 397.17 1348.62 395.77 1346.3 395.08C1342.96 394.07 1338.47 392.2 1334.94 392.69" fill="#806D5D"/>
<path d="M1329.28 363.761C1338.84 365.231 1347.6 368.991 1356.22 370.591C1350.55 365.681 1337.83 361.551 1330.66 359.621C1330.47 360.341 1329.57 363.431 1329.28 363.891" fill="#806D5D"/>
<path d="M1350.09 341.49C1350.07 344.57 1368.76 349.77 1371.89 349.68C1370.81 346.86 1364.78 345.14 1362.25 344.27C1358.63 343.02 1353.77 340.72 1349.98 341.34" fill="#806D5D"/>
<path d="M1356.74 319.499C1361.69 322.919 1370.15 324.179 1376 324.949C1374.93 323.039 1367.88 320.849 1365.6 319.999C1362.02 318.649 1358.04 317.439 1354.43 316.779C1354.43 318.309 1356.36 319.239 1357.52 320.259" fill="#806D5D"/>
<path d="M1372.11 294.461C1372.11 296.671 1387.08 300.291 1389.59 300.231C1388.72 298.251 1383.88 297.041 1381.85 296.411C1378.96 295.531 1375.06 293.931 1372 294.361" fill="#806D5D"/>
<path d="M645.43 731.909C645.43 731.909 661.15 750.899 694.07 770.129C744.34 799.489 832.85 831.879 952.14 817.519C1031.72 807.939 1117.79 784.339 1238.75 710.319C1416.64 601.449 1533.04 603.129 1622.73 637.899C1719.47 675.409 1788.45 744.219 1788.45 744.219C1788.45 744.219 1672.41 476.869 1380.89 533.339C1280.37 552.809 1218.13 601.509 1158.96 638.459C1093.78 679.169 1036.52 704.299 998.25 720.809C953.54 740.099 916.99 746.599 880.84 755.399C853.78 761.989 795.94 765.439 766.02 763.579C691.2 758.929 645.43 731.909 645.43 731.909Z" fill="#2BAAE2"/>
<path d="M1350.6 859.009C1352.03 857.739 1353.53 856.399 1355.11 854.999C1356.76 853.699 1358.48 852.349 1360.28 850.939C1363.87 848.079 1367.87 845.159 1372.11 841.939C1374.23 840.329 1376.45 838.699 1378.76 837.069C1381.13 835.529 1383.56 833.949 1386.06 832.329C1391.07 829.079 1396.44 825.819 1402.04 822.319C1413.57 816.109 1426.11 809.109 1440.12 803.339C1443.61 801.829 1447.14 800.309 1450.72 798.769C1454.38 797.439 1458.08 796.089 1461.83 794.729C1469.33 791.999 1477.06 789.299 1485.1 787.189C1493.09 784.889 1501.26 782.619 1509.67 780.969C1513.87 780.089 1518.1 779.209 1522.34 778.319C1526.6 777.529 1530.93 776.979 1535.26 776.289C1539.59 775.649 1543.95 775.019 1548.33 774.459C1552.72 774.069 1557.13 773.679 1561.55 773.279C1570.38 772.339 1579.29 772.259 1588.19 771.979C1597.1 771.719 1605.99 772.219 1614.85 772.439C1619.27 772.679 1623.68 773.079 1628.06 773.439C1632.45 773.829 1636.84 774.069 1641.16 774.729C1649.83 775.849 1658.42 776.959 1666.81 778.629C1671.01 779.449 1675.2 780.149 1679.3 781.079C1683.4 782.049 1687.47 783.009 1691.5 783.969C1695.54 784.859 1699.49 786.049 1703.4 787.159C1707.31 788.269 1711.18 789.359 1714.97 790.569C1722.52 793.109 1729.93 795.429 1736.94 798.309C1751.09 803.599 1764.02 809.719 1775.72 815.639C1799.04 827.799 1817 840.309 1828.84 849.969C1840.74 859.549 1846.54 866.179 1846.54 866.179C1846.54 866.179 1838.15 863.689 1823.77 859.859C1816.59 857.929 1807.89 855.719 1797.98 853.309C1788.08 850.889 1776.91 848.389 1764.82 845.809C1752.68 843.369 1739.66 840.689 1725.83 838.499C1718.95 837.269 1711.82 836.389 1704.64 835.199C1697.39 834.319 1690.05 833.169 1682.54 832.409C1675.04 831.599 1667.45 830.689 1659.74 830.159C1652.06 829.339 1644.26 829.029 1636.43 828.489C1628.6 827.989 1620.69 827.939 1612.77 827.559C1608.81 827.539 1604.84 827.529 1600.87 827.509C1596.9 827.439 1592.92 827.369 1588.96 827.569C1581.02 827.769 1573.07 827.789 1565.18 828.359C1561.23 828.559 1557.28 828.749 1553.35 828.949C1549.43 829.289 1545.51 829.629 1541.62 829.969C1537.72 830.309 1533.82 830.519 1529.96 830.969C1526.1 831.429 1522.26 831.889 1518.44 832.339C1510.76 833.039 1503.26 834.309 1495.82 835.399C1492.12 836.009 1488.38 836.359 1484.76 837.069C1481.12 837.739 1477.51 838.409 1473.95 839.069C1470.36 839.699 1466.81 840.319 1463.3 840.939C1459.81 841.699 1456.37 842.449 1452.98 843.179C1439.25 845.789 1426.49 849.349 1414.39 852.089C1408.44 853.719 1402.75 855.379 1397.23 856.809C1394.47 857.529 1391.77 858.229 1389.15 858.899C1386.57 859.689 1384.06 860.449 1381.63 861.199C1376.72 862.629 1372.16 864.069 1367.83 865.229C1365.67 865.839 1363.6 866.419 1361.62 866.969C1359.67 867.599 1357.81 868.199 1356.04 868.769C1341.86 873.309 1333.25 875.429 1333.25 875.429C1333.25 875.429 1339.24 869.159 1350.62 858.989L1350.6 859.009Z" fill="#2BAAE2"/>
<path d="M507.4 717.14C519.77 724.44 584.37 776.96 615.21 789.69C621.47 792.85 627.74 795.94 634.07 798.89C640.34 801.92 646.64 804.86 652.96 807.7C665.53 813.49 678.25 818.8 690.88 824C703.58 829.08 716.26 833.93 729 838.37C741.77 842.75 754.45 847.02 767.29 850.6C780.02 854.43 792.85 857.72 805.65 860.61C818.43 863.63 831.29 865.89 844.07 868.05C856.87 870.15 869.66 871.72 882.43 873.01C895.19 874.34 907.95 875.21 920.69 875.65C933.44 876.16 946.19 876.27 958.94 875.86C965.33 875.78 971.69 875.27 978.09 875C984.45 874.42 990.87 874.1 997.24 873.32C1010.02 872.04 1022.76 869.99 1035.47 867.46C1048.22 865.09 1060.78 861.58 1073.34 857.92C1085.81 853.94 1098.28 849.7 1110.42 844.43C1158.16 827.14 1271.38 756.72 1309.25 739.96L1326.58 732.55L1344.07 725.47C1355.81 720.92 1367.6 716.49 1379.56 712.45C1391.47 708.32 1403.57 704.58 1415.74 701.14C1427.97 697.83 1440.23 694.66 1452.69 692.12C1465.13 689.55 1477.63 687.25 1490.29 685.64C1515.56 682.37 1541.27 681.02 1566.9 683.32C1592.47 685.56 1618.04 691.14 1641.6 701.76C1653.33 707.12 1664.53 713.66 1674.68 721.55C1679.75 725.51 1684.6 729.74 1689.04 734.39C1693.52 739.12 1697.52 743.83 1701.18 749.81C1701.18 749.81 1658.66 724.66 1634.72 719.86C1608.05 713.94 1589.26 710.96 1566.1 711.85C1542.91 712.78 1519.8 716.5 1497.11 722.13C1485.75 724.9 1474.51 728.32 1463.37 731.98C1452.21 735.61 1441.2 739.85 1430.26 744.18C1419.36 748.69 1408.47 753.17 1397.76 758.2C1387.01 763.1 1376.4 768.38 1365.85 773.74L1350.13 782.05L1334.55 790.68C1324.22 796.55 1313.98 802.59 1303.82 808.77L1288.63 818.14L1273.51 827.65C1263.49 834.12 1253.51 840.64 1243.64 847.35C1233.77 854.07 1202.47 875.19 1192.77 882.18C1183.01 889.06 1156.87 906.07 1143.19 913.1C1139.78 914.88 1136.4 916.72 1132.96 918.45L1122.55 923.5C1115.66 927 1108.51 929.98 1101.46 933.23C1094.26 936.12 1087.16 939.31 1079.81 941.92L1068.85 946.04L1057.74 949.8C1050.34 952.36 1042.77 954.45 1035.23 956.66C1027.62 958.62 1020.02 960.69 1012.3 962.3C996.92 965.8 981.29 968.36 965.55 969.95C949.82 971.68 933.97 972.29 918.17 972.03C902.36 971.82 886.59 970.59 871 968.43C855.42 966.25 839.95 963.38 824.83 959.46C809.67 955.68 794.83 950.89 780.22 945.78C765.63 940.59 751.45 934.47 737.51 928.08C723.68 921.41 710.08 914.48 696.97 906.75C683.83 899.08 671.05 890.95 658.74 882.22C646.36 873.62 634.51 864.32 622.99 854.76C617.28 849.9 611.62 845.02 606.1 840C549.09 792.68 507.4 717.13 507.4 717.13V717.14Z" fill="#1282AB"/>
<path d="M157.65 404.19L156.21 407.07C160.53 422.93 167.74 441.67 176.4 463.3C198.03 519.52 228.3 562.78 267.23 591.61C296.06 613.24 342.2 634.86 404.2 656.49L402.76 663.7C382.58 665.14 363.83 666.58 347.97 666.58C260.02 666.58 190.82 629.1 138.92 554.12C120.18 526.73 99.99 490.68 78.37 445.99L55.3 803.54H48.09L0.5 58.17C1.94 19.24 20.68 0.5 55.28 0.5C85.56 0.5 104.3 27.89 102.86 58.17L82.67 365.26C120.16 291.73 172.06 216.76 239.82 140.35C248.47 133.14 258.56 130.26 268.66 130.26C300.38 130.26 316.24 149 316.24 185.05C316.24 206.68 307.59 223.98 291.73 236.95C223.97 304.71 179.27 359.5 157.65 404.19Z" fill="#046937"/>
<path d="M55.75 804.05H47.6L47.57 803.58L0 58.2C1.43 19.56 20.03 0 55.28 0C68.08 0 79.45 4.83 88.16 13.97C98.63 24.95 104.17 41.07 103.35 58.19L83.32 362.88C121.22 289.08 173.73 214.11 239.44 140.02C247.62 133.19 257.43 129.76 268.65 129.76C300.55 129.76 316.73 148.36 316.73 185.05C316.73 206.34 308.42 223.93 292.04 237.34C222.81 306.57 178.98 361.23 158.09 404.41L156.73 407.13C160.85 422.17 167.48 439.72 176.85 463.12C198.6 519.67 229.1 562.77 267.51 591.22C295.76 612.4 341.79 634.21 404.34 656.03L404.75 656.17L403.15 664.18L398.14 664.54C379.87 665.85 362.61 667.09 347.95 667.09C304.16 667.09 264.36 657.61 229.67 638.92C195.08 620.28 164.4 591.85 138.49 554.42C120.06 527.49 99.96 491.67 78.72 447.93L55.74 804.05H55.75ZM48.54 803.05H54.81L77.97 444.08L78.8 445.79C100.32 490.26 120.68 526.62 139.32 553.85C191.61 629.37 259.85 666.09 347.96 666.09C362.58 666.09 379.82 664.85 398.08 663.54L402.33 663.24L403.61 656.83C341.17 635.02 295.18 613.22 266.92 592.02C228.36 563.46 197.74 520.21 175.92 463.49C166.51 439.96 159.84 422.34 155.72 407.21L155.67 407.03L157.19 403.98C178.13 360.7 222.02 305.95 291.37 236.61C307.55 223.37 315.73 206.04 315.73 185.06C315.73 149.04 299.89 130.77 268.65 130.77C257.67 130.77 248.08 134.13 240.13 140.75C173.9 215.45 121.05 291.08 83.11 365.5L82.01 367.67L102.36 58.14C103.16 41.3 97.72 25.45 87.44 14.66C78.92 5.72 67.8 1 55.28 1C20.67 1 2.4 20.24 1 58.19L48.54 803.05Z" fill="white"/>
<path d="M437.339 606.03C422.919 621.89 417.149 630.54 421.479 634.86C428.689 642.07 443.109 646.39 467.619 646.39C505.109 646.39 557.009 617.56 621.889 558.45C626.209 554.12 630.539 552.68 636.309 552.68C647.839 552.68 653.609 561.33 653.609 577.19L656.489 777.59L652.169 779.03C630.539 705.5 620.449 655.04 620.449 626.21C546.919 691.08 489.249 724.24 445.999 724.24C415.719 724.24 391.219 708.38 372.469 678.11C365.259 665.13 360.939 650.72 360.939 633.42C360.939 600.26 373.919 568.54 399.869 539.7C422.939 512.31 451.769 493.57 484.929 483.47C509.439 476.26 544.039 471.94 591.619 470.5C616.129 474.82 627.659 493.57 624.779 526.73C623.339 559.89 610.359 574.3 585.849 569.98C512.319 565.65 463.299 577.19 437.349 606.02L437.339 606.03Z" fill="#046937"/>
<path d="M651.82 779.68L651.67 779.18C630.87 708.44 620.19 657.36 619.94 627.32C545.48 692.88 488.57 724.75 445.98 724.75C415.96 724.75 391.08 709.15 372.02 678.38C364.21 664.31 360.41 649.61 360.41 633.42C360.41 599.81 373.55 568.16 399.47 539.37C422.31 512.24 451.01 493.27 484.76 483C509.66 475.68 544.6 471.43 591.58 470.01H591.63H591.68C616.85 474.45 628.14 493.55 625.25 526.77C624.43 545.76 619.73 558.83 611.29 565.6C604.93 570.7 596.34 572.34 585.73 570.47C511.78 566.12 463.34 577.86 437.69 606.36C424.75 620.59 417.58 630.27 421.81 634.51C429.36 642.06 444.77 645.89 467.59 645.89C505.77 645.89 557.56 616.35 621.52 558.08C625.7 553.9 629.98 552.18 636.27 552.18C647.91 552.18 654.07 560.83 654.07 577.19L656.96 777.95L651.8 779.67L651.82 779.68ZM620.93 625.11V626.22C620.93 655.94 631.55 707.14 652.48 778.4L655.97 777.24L653.09 577.2C653.09 561.48 647.28 553.18 636.29 553.18C630.29 553.18 626.22 554.81 622.23 558.8C558.07 617.26 506.05 646.89 467.61 646.89C444.51 646.89 428.87 642.96 421.12 635.21C416.28 630.36 422.95 621.1 436.96 605.69C462.82 576.95 511.52 565.11 585.86 569.48C596.23 571.3 604.55 569.73 610.67 564.82C618.87 558.24 623.44 545.41 624.25 526.7C627.09 494.08 616.09 475.35 591.55 470.99C544.68 472.41 509.84 476.65 485.04 483.94C451.48 494.16 422.95 513.02 400.22 540.01C374.46 568.63 361.41 600.05 361.41 633.41C361.41 649.43 365.16 663.97 372.88 677.86C391.72 708.29 416.32 723.74 445.97 723.74C488.46 723.74 545.41 691.71 620.09 625.83L620.92 625.1L620.93 625.11Z" fill="white"/>
<path d="M747.279 611.8C747.279 634.87 753.049 649.29 763.139 653.61C773.229 657.94 789.089 631.98 809.279 574.32C830.909 516.65 848.209 487.82 862.619 487.82C865.499 487.82 871.269 490.7 878.479 495.03C890.019 502.24 895.779 510.89 895.779 523.86C895.779 522.42 892.899 536.84 887.129 565.67L855.409 737.24C822.249 908.81 771.789 995.31 705.469 995.31C692.489 995.31 680.959 992.43 670.869 985.22C642.039 966.48 627.619 939.08 627.619 900.16C627.619 878.53 633.389 859.79 643.479 842.49L646.359 845.37C643.479 856.91 642.039 868.44 642.039 879.97C642.039 934.76 662.229 962.15 702.589 962.15C735.749 962.15 766.029 911.68 793.419 809.32L809.279 709.84C794.859 722.82 778.999 728.58 763.139 728.58C755.929 728.58 747.279 725.69 737.189 721.37C699.699 702.63 680.959 663.7 680.959 604.59C680.959 557.02 691.049 515.2 712.679 480.6C719.889 473.39 728.539 469.07 738.629 469.07C761.699 469.07 773.229 482.04 773.229 509.44C773.229 520.98 770.349 531.07 763.139 538.27C753.049 557.01 747.279 581.52 747.279 611.8Z" fill="#046937"/>
<path d="M705.469 995.801C691.579 995.801 680.169 992.471 670.579 985.621C641.339 966.611 627.119 938.651 627.119 900.151C627.119 879.541 632.329 860.601 643.049 842.231L643.379 841.671L646.919 845.211L646.849 845.481C643.989 856.921 642.539 868.521 642.539 879.961C642.539 907.121 647.599 927.751 657.579 941.301C667.529 954.801 682.669 961.641 702.589 961.641C735.469 961.641 765.859 910.351 792.939 809.181L808.569 711.131C794.919 723.041 779.649 729.071 763.149 729.071C756.689 729.071 748.869 726.901 736.999 721.821C699.479 703.061 680.469 663.621 680.469 604.581C680.469 555.891 691.169 514.081 712.259 480.331L712.329 480.241C720.079 472.491 728.929 468.561 738.629 468.561C762.249 468.561 773.729 481.931 773.729 509.431C773.729 521.971 770.299 531.771 763.539 538.571C753.079 558.031 747.779 582.671 747.779 611.801C747.779 634.171 753.299 648.861 763.329 653.151C764.779 653.771 766.389 653.701 768.109 652.941C775.179 649.831 787.979 633.631 808.799 574.151C831.019 514.901 848.119 487.311 862.619 487.311C865.339 487.311 870.459 489.621 878.739 494.591C890.879 502.171 896.279 511.201 896.279 523.851H895.929L896.189 524.001C895.799 524.881 892.779 539.981 887.779 564.991L887.629 565.751L855.909 737.311C822.759 908.831 772.149 995.791 705.479 995.791L705.469 995.801ZM643.579 843.291C633.169 861.331 628.119 879.931 628.119 900.151C628.119 938.291 642.189 965.971 671.139 984.791C680.579 991.531 691.799 994.801 705.469 994.801C771.589 994.801 821.879 908.111 854.919 737.131L886.639 565.571L886.789 564.801C889.449 551.491 891.549 540.981 892.969 534.071C894.429 526.931 894.929 524.481 895.279 523.651C895.219 511.481 889.949 502.771 878.209 495.441C870.219 490.641 865.109 488.311 862.619 488.311C848.789 488.311 831.489 516.501 809.739 574.491C793.169 621.841 778.909 649.281 768.509 653.861C766.519 654.731 764.649 654.811 762.929 654.071C752.509 649.611 746.769 634.591 746.769 611.801C746.769 582.471 752.129 557.651 762.689 538.041L762.779 537.921C769.379 531.321 772.729 521.741 772.729 509.441C772.729 482.611 761.579 469.571 738.629 469.571C729.219 469.571 720.619 473.391 713.069 480.921C692.089 514.511 681.459 556.121 681.459 604.591C681.459 663.221 700.289 702.361 737.409 720.931C749.119 725.941 756.819 728.091 763.139 728.091C779.809 728.091 795.219 721.831 808.939 709.471L809.989 708.521L793.909 809.401C780.279 860.331 765.709 899.001 750.589 924.381C735.459 949.781 719.309 962.651 702.579 962.651C662.069 962.651 641.529 934.831 641.529 879.971C641.529 868.541 642.969 856.951 645.799 845.521L643.579 843.301V843.291Z" fill="white"/>
<path d="M985.15 606.03C970.73 621.89 964.96 630.54 969.29 634.86C976.5 642.07 990.92 646.39 1015.42 646.39C1052.91 646.39 1104.81 617.56 1169.69 558.45C1174.01 554.12 1178.34 552.68 1184.11 552.68C1195.64 552.68 1201.41 561.33 1201.41 577.19L1204.3 777.59L1199.97 779.03C1178.34 705.5 1168.25 655.04 1168.25 626.21C1094.72 691.08 1037.05 724.24 993.8 724.24C963.52 724.24 939.01 708.38 920.27 678.11C913.06 665.13 908.74 650.72 908.74 633.42C908.74 600.26 921.72 568.54 947.67 539.7C970.74 512.31 999.57 493.57 1032.74 483.47C1057.25 476.26 1091.85 471.94 1139.43 470.5C1163.94 474.82 1175.47 493.57 1172.59 526.73C1171.15 559.89 1158.17 574.3 1133.67 569.98C1060.14 565.65 1011.12 577.19 985.17 606.02L985.15 606.03Z" fill="#046937"/>
<path d="M1199.63 779.68L1199.48 779.18C1178.68 708.45 1168.01 657.37 1167.75 627.32C1093.28 692.88 1036.38 724.75 993.79 724.75C963.77 724.75 938.891 709.15 919.841 678.38C912.021 664.31 908.23 649.61 908.23 633.42C908.23 599.81 921.371 568.16 947.281 539.37C970.131 512.24 998.83 493.27 1032.57 483C1057.47 475.68 1092.4 471.43 1139.39 470.01H1139.44H1139.49C1164.66 474.45 1175.95 493.55 1173.06 526.77C1172.23 545.76 1167.54 558.83 1159.1 565.6C1152.75 570.7 1144.15 572.34 1133.55 570.47C1059.6 566.12 1011.16 577.86 985.51 606.36C972.57 620.6 965.4 630.27 969.63 634.51C977.18 642.06 992.59 645.89 1015.41 645.89C1053.6 645.89 1105.39 616.35 1169.34 558.08C1173.52 553.9 1177.8 552.18 1184.09 552.18C1195.73 552.18 1201.89 560.83 1201.89 577.19L1204.78 777.95L1199.61 779.67L1199.63 779.68ZM1168.75 625.11V626.22C1168.75 655.95 1179.36 707.15 1200.3 778.4L1203.79 777.24L1200.91 577.2C1200.91 561.48 1195.1 553.18 1184.11 553.18C1178.11 553.18 1174.03 554.81 1170.05 558.8C1105.89 617.26 1053.87 646.89 1015.43 646.89C992.33 646.89 976.69 642.96 968.94 635.21C964.1 630.37 970.771 621.1 984.781 605.69C1010.65 576.95 1059.36 565.11 1133.68 569.48C1144.05 571.3 1152.37 569.73 1158.49 564.82C1166.69 558.24 1171.26 545.41 1172.07 526.7C1174.91 494.08 1163.91 475.35 1139.38 470.99C1092.51 472.41 1057.67 476.65 1032.87 483.94C999.32 494.15 970.78 513.02 948.05 540.01C922.29 568.63 909.24 600.05 909.24 633.41C909.24 649.43 912.991 663.96 920.711 677.86C939.551 708.29 964.15 723.74 993.8 723.74C1036.29 723.74 1093.24 691.71 1167.92 625.83L1168.75 625.1V625.11Z" fill="white"/>
<path d="M1289.33 679.561C1289.33 686.771 1295.1 689.651 1306.63 689.651C1319.61 689.651 1342.67 682.44 1378.72 669.47C1378.72 670.43 1379.2 671.39 1380.16 672.35C1349.88 708.39 1318.16 725.691 1286.45 725.691C1264.82 725.691 1253.29 712.711 1248.96 686.771C1240.31 627.661 1235.98 564.22 1234.54 496.46C1233.1 446 1234.54 395.541 1238.87 346.521C1243.19 320.57 1257.61 309.031 1280.68 310.481C1305.19 313.361 1313.84 327.781 1309.51 353.731L1289.32 679.561H1289.33Z" fill="#046937"/>
<path d="M1286.45 726.191C1265.01 726.191 1252.94 713.691 1248.47 686.851C1240.3 631.021 1235.58 568.751 1234.05 496.471C1232.61 445.851 1234.06 395.391 1238.38 346.481C1242.66 320.761 1256.9 308.501 1280.72 309.981C1292.37 311.351 1300.43 315.221 1305.39 321.821C1310.88 329.121 1312.39 339.591 1310.02 353.811L1289.84 679.571C1289.84 686.191 1295.03 689.151 1306.64 689.151C1319.9 689.151 1343.99 681.441 1378.56 669.001L1379.23 668.761V669.471C1379.23 670.291 1379.66 671.134 1380.52 672.001L1380.84 672.321L1380.55 672.671C1350.72 708.181 1319.06 726.191 1286.46 726.191H1286.45ZM1276.95 310.851C1255.96 310.851 1243.32 322.861 1239.36 346.601C1235.05 395.431 1233.6 445.861 1235.04 496.441C1236.58 568.681 1241.29 630.911 1249.45 686.691C1253.83 712.951 1265.58 725.191 1286.44 725.191C1318.63 725.191 1349.92 707.421 1379.48 672.381C1378.49 671.381 1378.28 671.051 1378.23 670.181C1343.91 682.521 1319.94 690.151 1306.63 690.151C1294.32 690.151 1288.83 686.881 1288.83 679.561V679.531L1309.02 353.701C1311.35 339.711 1309.89 329.491 1304.58 322.421C1299.79 316.051 1291.96 312.311 1280.62 310.971C1279.37 310.891 1278.14 310.851 1276.95 310.851Z" fill="white"/>
<path d="M880.471 317.669L881.071 317.069L890.471 315.959L891.071 316.559V364.909H915.591L916.021 365.589L913.881 373.879L913.111 374.309H881.081L880.481 373.709V317.669H880.471Z" fill="#2BAAE2"/>
<path d="M937.271 317.669L937.871 317.069L947.351 315.959L947.951 316.559L968.451 373.709L967.851 374.309H958.031L957.431 373.709L953.071 360.639H932.571L928.211 373.709L927.611 374.309H917.791L917.191 373.709L937.271 317.669ZM950.081 351.749L944.361 334.579L942.821 328.939L941.281 334.579L935.561 351.749H950.081Z" fill="#2BAAE2"/>
<path d="M974.352 337.399C974.352 323.309 983.752 315.789 998.442 315.789C1016.21 315.789 1020.48 328.939 1020.48 328.939L1020.14 329.709L1011.77 333.209L1010.92 332.949C1010.92 332.949 1007.67 325.179 998.452 325.179C990.762 325.179 985.122 329.539 985.122 337.989V353.199C985.122 361.909 990.762 365.839 998.452 365.839C1006.14 365.839 1012.12 362.339 1012.12 353.619V352.769H1002.3L1001.7 352.169L1000.59 343.969L1001.19 343.369H1021.95L1022.55 343.969V353.959C1022.55 367.969 1013.32 375.319 998.462 375.319C983.602 375.319 974.372 367.969 974.372 353.959V337.389L974.352 337.399Z" fill="#2BAAE2"/>
<path d="M1032.43 337.399C1032.43 323.309 1041.83 315.789 1056.52 315.789C1071.21 315.789 1080.69 323.309 1080.69 337.399V353.969C1080.69 367.979 1071.38 375.329 1056.52 375.329C1041.66 375.329 1032.43 367.979 1032.43 353.969V337.399ZM1056.52 365.929C1064.38 365.929 1069.93 361.999 1069.93 353.289V337.999C1069.93 329.539 1064.38 325.189 1056.52 325.189C1048.66 325.189 1043.19 329.549 1043.19 337.999V353.289C1043.19 361.999 1048.83 365.929 1056.52 365.929Z" fill="#2BAAE2"/>
<path d="M1091.63 337.399C1091.63 323.309 1101.03 315.789 1115.72 315.789C1130.41 315.789 1139.89 323.309 1139.89 337.399V353.969C1139.89 367.979 1130.58 375.329 1115.72 375.329C1100.86 375.329 1091.63 367.979 1091.63 353.969V337.399ZM1115.72 365.929C1123.58 365.929 1129.13 361.999 1129.13 353.289V337.999C1129.13 329.539 1123.58 325.189 1115.72 325.189C1107.86 325.189 1102.39 329.549 1102.39 337.999V353.289C1102.39 361.999 1108.03 365.929 1115.72 365.929Z" fill="#2BAAE2"/>
<path d="M1152.79 317.579L1153.39 316.979L1161.93 315.949L1162.7 316.289L1186.79 350.799L1190.04 356.269V317.659L1190.64 317.059L1200.04 315.949L1200.64 316.549V373.699L1200.04 374.299H1191.41L1190.64 373.789L1166.38 339.019L1163.39 333.889V373.699L1162.79 374.299H1153.39L1152.79 373.699V317.579Z" fill="#2BAAE2"/>
<path d="M1635.47 470.03H1617.58V458.1H1666.3V470.03H1648.41V516.9H1635.47V470.03Z" fill="#414042"/>
<path d="M1676.21 458.1H1690.15L1705.61 482.96L1721.07 458.1H1735.01V516.9H1722.16V478.51L1705.61 503.63H1705.27L1688.89 478.77V516.91H1676.21V458.11V458.1Z" fill="#414042"/>
<path d="M541.848 992.608C534.344 992.608 527.153 991.625 520.274 989.66C513.396 987.605 507.857 984.97 503.658 981.754L511.028 965.406C515.048 968.264 519.783 970.632 525.232 972.508C530.771 974.294 536.354 975.188 541.982 975.188C546.27 975.188 549.71 974.786 552.3 973.982C554.98 973.088 556.946 971.882 558.196 970.364C559.447 968.845 560.072 967.103 560.072 965.138C560.072 962.636 559.09 960.671 557.124 959.242C555.159 957.723 552.568 956.517 549.352 955.624C546.136 954.641 542.563 953.748 538.632 952.944C534.791 952.05 530.905 950.978 526.974 949.728C523.133 948.477 519.604 946.869 516.388 944.904C513.172 942.938 510.537 940.348 508.482 937.132C506.517 933.916 505.534 929.806 505.534 924.804C505.534 919.444 506.964 914.575 509.822 910.198C512.77 905.731 517.148 902.202 522.954 899.612C528.85 896.932 536.22 895.592 545.064 895.592C550.96 895.592 556.767 896.306 562.484 897.736C568.202 899.076 573.249 901.13 577.626 903.9L570.926 920.382C566.549 917.88 562.172 916.049 557.794 914.888C553.417 913.637 549.129 913.012 544.93 913.012C540.732 913.012 537.292 913.503 534.612 914.486C531.932 915.468 530.012 916.764 528.85 918.372C527.689 919.89 527.108 921.677 527.108 923.732C527.108 926.144 528.091 928.109 530.056 929.628C532.022 931.057 534.612 932.218 537.828 933.112C541.044 934.005 544.573 934.898 548.414 935.792C552.345 936.685 556.231 937.712 560.072 938.874C564.003 940.035 567.576 941.598 570.792 943.564C574.008 945.529 576.599 948.12 578.564 951.336C580.619 954.552 581.646 958.616 581.646 963.53C581.646 968.8 580.172 973.624 577.224 978.002C574.276 982.379 569.854 985.908 563.958 988.588C558.152 991.268 550.782 992.608 541.848 992.608Z" fill="#046937"/>
<path d="M448.278 990.999V914.887H418.262V897.199H500.002V914.887H469.986V990.999H448.278Z" fill="#046937"/>
<path d="M320.627 990.999V897.199H338.583L393.925 964.735H385.215V897.199H406.655V990.999H388.833L333.357 923.463H342.067V990.999H320.627Z" fill="#046937"/>
<path d="M230.727 990.999V897.199H301.613V914.619H252.301V973.579H303.355V990.999H230.727ZM250.693 951.871V934.987H295.851V951.871H250.693Z" fill="#046937"/>
<path d="M160.855 990.999L120.387 897.199H143.837L179.213 980.279H165.411L201.323 897.199H222.897L182.295 990.999H160.855Z" fill="#046937"/>
<path d="M44.1211 990.999V897.199H115.007V914.619H65.6951V973.579H116.749V990.999H44.1211ZM64.0871 951.871V934.987H109.245V951.871H64.0871Z" fill="#046937"/>
</g>
<defs>
<clipPath id="clip0_240_418">
<rect width="1846.54" height="995.8" fill="white"/>
</clipPath>
</defs>
</svg>
